<?xml version="1.0" standalone="no"?>
<!DOCTYPE svg PUBLIC "-//W3C//DTD SVG 20010904//EN"
 "http://www.w3.org/TR/2001/REC-SVG-20010904/DTD/svg10.dtd">
<svg version="1.0" xmlns="http://www.w3.org/2000/svg"
 width="720.000000pt" height="720.000000pt" viewBox="0 0 720.000000 720.000000"
 preserveAspectRatio="xMidYMid meet">
<metadata>
Created by potrace 1.11, written by Peter Selinger 2001-2013
</metadata>
<g transform="translate(0.000000,720.000000) scale(0.100000,-0.100000)"
fill="#000000" stroke="none">
<path d="M3379 7176 c-2 -2 -42 -7 -89 -10 -47 -3 -94 -8 -106 -10 -11 -2 -47
-7 -79 -10 -32 -4 -77 -11 -99 -16 -23 -5 -61 -12 -86 -15 -24 -4 -48 -8 -51
-11 -4 -2 -22 -6 -40 -8 -58 -8 -321 -82 -419 -119 -164 -61 -186 -70 -195
-78 -5 -5 -15 -9 -22 -9 -27 0 -345 -165 -488 -253 -56 -34 -140 -93 -143 -99
-2 -5 -8 -8 -14 -8 -6 0 -39 -22 -74 -50 -35 -27 -66 -50 -69 -50 -3 0 -13 -8
-23 -17 -10 -10 -40 -36 -67 -58 -27 -22 -65 -53 -84 -70 -62 -53 -275 -269
-326 -330 -27 -33 -60 -70 -72 -83 -13 -12 -23 -27 -23 -31 0 -4 -10 -16 -21
-27 -12 -10 -35 -39 -52 -64 -17 -25 -33 -47 -36 -50 -4 -3 -24 -32 -46 -65
-22 -33 -46 -66 -53 -73 -6 -7 -12 -20 -12 -28 0 -8 -3 -14 -8 -14 -4 0 -16
-17 -27 -37 -10 -21 -24 -45 -31 -53 -25 -33 -148 -268 -197 -380 -32 -72 -79
-192 -77 -198 0 -1 -7 -16 -15 -32 -8 -16 -16 -33 -16 -37 -2 -10 -4 -18 -28
-88 -17 -54 -56 -189 -66 -233 -50 -220 -76 -377 -93 -562 -14 -168 -7 -620
12 -720 3 -14 8 -47 11 -75 6 -56 30 -196 46 -265 6 -25 12 -52 14 -60 14 -67
60 -226 89 -311 55 -163 67 -193 78 -206 6 -7 7 -13 4 -13 -4 0 -1 -10 6 -23
7 -12 13 -24 13 -27 10 -40 154 -323 224 -440 56 -92 214 -326 230 -340 3 -3
19 -23 36 -45 16 -22 41 -52 55 -67 14 -15 43 -48 65 -74 85 -100 285 -295
406 -396 35 -29 66 -56 67 -60 2 -4 8 -8 13 -8 9 0 86 -55 99 -71 9 -11 234
-155 280 -180 24 -13 50 -30 58 -36 7 -7 19 -13 27 -13 7 0 15 -3 17 -7 2 -5
62 -36 133 -71 72 -35 138 -68 147 -73 10 -5 25 -9 33 -9 8 0 15 -5 15 -12 0
-6 3 -8 7 -5 3 4 12 2 20 -4 7 -6 13 -8 13 -4 0 4 6 3 13 -3 6 -6 32 -18 57
-27 83 -29 225 -77 255 -85 17 -5 57 -16 90 -25 59 -16 79 -21 120 -30 11 -3
31 -7 45 -10 66 -15 220 -43 265 -50 88 -11 108 -14 200 -22 169 -15 624 -8
721 11 11 2 47 7 79 10 32 4 77 11 99 16 23 4 57 11 76 14 19 3 46 8 60 11 14
3 37 7 53 10 45 9 262 69 297 83 14 5 30 11 35 12 33 8 166 56 236 85 100 41
126 53 249 115 162 81 205 104 208 113 2 4 10 7 18 7 8 0 14 5 14 10 0 6 5 10
10 10 13 0 184 110 188 121 2 5 8 9 13 9 11 0 168 116 185 136 6 8 14 14 18
14 4 0 13 6 20 12 7 7 42 38 77 68 77 66 286 275 349 350 25 29 50 58 55 64 6
6 33 40 60 76 28 36 53 67 56 70 3 3 21 28 39 55 19 28 37 51 42 53 4 2 8 9 8
15 0 7 11 25 25 41 14 16 25 35 25 43 0 7 3 13 8 13 4 0 16 17 27 37 11 21 22
40 26 43 8 8 106 186 125 230 10 22 22 40 28 40 5 0 7 3 3 6 -3 4 5 28 18 54
23 45 99 225 111 265 2 6 21 62 43 125 47 138 72 232 109 410 22 104 31 154
38 215 2 22 6 56 9 75 27 191 27 647 0 840 -3 19 -7 58 -11 85 -16 144 -93
468 -145 615 -16 47 -32 92 -34 100 -25 108 -292 653 -327 668 -5 2 -8 10 -8
18 0 8 -4 14 -10 14 -5 0 -10 5 -10 11 0 10 -153 235 -169 249 -3 3 -18 21
-32 40 -15 19 -36 46 -48 60 -12 14 -41 47 -64 74 -46 54 -288 299 -328 331
-69 56 -154 131 -157 138 -2 4 -8 7 -13 7 -9 0 -83 53 -99 70 -3 3 -34 25 -69
49 -139 94 -283 178 -426 248 -82 41 -158 78 -167 84 -10 5 -25 9 -33 9 -8 0
-15 4 -15 10 0 5 -3 9 -7 8 -5 -2 -39 10 -78 26 -38 15 -77 30 -85 32 -8 2
-53 17 -100 34 -47 16 -94 32 -105 35 -11 2 -56 14 -100 25 -159 42 -371 83
-492 95 -32 3 -76 8 -98 11 -47 6 -541 15 -546 10z"/>
</g>
</svg>
